<?xml version="1.0" standalone="no"?>
<!DOCTYPE svg PUBLIC "-//W3C//DTD SVG 20010904//EN"
 "http://www.w3.org/TR/2001/REC-SVG-20010904/DTD/svg10.dtd">
<svg version="1.0" xmlns="http://www.w3.org/2000/svg"
 width="260.000000pt" height="260.000000pt" viewBox="0 0 260.000000 260.000000"
 preserveAspectRatio="xMidYMid meet">
<metadata>
Created by potrace 1.11, written by Peter Selinger 2001-2013
</metadata>
<g transform="translate(0.000000,260.000000) scale(0.100000,-0.100000)"
fill="#000000" stroke="none">
<path d="M1895 2310 c-53 -22 -60 -35 -345 -626 -32 -66 -116 -237 -185 -380
-70 -142 -131 -269 -136 -282 -5 -14 -5 -40 1 -65 5 -23 11 -56 14 -73 10 -56
65 -258 90 -329 35 -102 60 -154 95 -202 37 -51 70 -56 121 -18 82 61 158 203
467 875 14 30 68 147 121 260 52 113 105 228 118 257 l23 52 -33 20 c-50 31
-101 140 -121 259 -29 174 -136 291 -230 252z"/>
<path d="M350 2086 c0 -4 7 -21 17 -39 17 -33 70 -208 79 -262 2 -16 13 -70
24 -120 10 -49 21 -101 23 -115 3 -14 8 -43 12 -65 13 -69 15 -79 20 -110 85
-503 171 -766 268 -825 18 -11 124 -57 237 -102 113 -44 238 -96 278 -115 41
-18 75 -33 77 -33 2 0 -12 25 -30 56 -19 31 -45 86 -59 123 -26 69 -81 256
-90 304 -3 15 -7 35 -10 45 -3 9 -8 28 -10 42 -3 14 -37 180 -75 370 -117 575
-117 575 -238 636 -44 23 -130 60 -190 84 -59 24 -121 48 -138 55 -16 7 -61
25 -100 40 -38 15 -76 29 -82 32 -7 3 -13 2 -13 -1z"/>
</g>
</svg>
